:SAMPLES-PER-SECOND 30
:FULLY-SPECIFIED
:DEGREES
49
root  54.1009 38.1994 -10.3746 -125.929 -82.08 121.748
RightUpLeg  13.2204 -7.17692 -14.333
RightLeg  39.87 8.22689 7.0442
RightFoot  2.73035 -1.76852 14.6356
RightToes  2.91037e-010 0 -3.6325e-017
Spine  6.63158 1.19429 -2.26364
Spine1  11.9623 3.78286 -8.25023
HEad  3.85729 9.13002 -4.08359
LeftShoulder1  8.59721 -12.6898 -46.3081
LeftArm  -7.65119 11.4648 -20.9788
LeftForeArm  30.6052 -9.56831 -5.9679
LeftHand  -0.244104 0.0205437 5.32207
RightShoulder  5.00329 8.88747 34.4255
RightArm  -6.07584 -8.48148 36.7732
RightForeArm  -5.70263 41.8552 10.3879
RightHand  -0.855567 0.731108 -16.2849
LeftUpLeg  -17.7409 18.5147 -16.6174
LeftLeg  17.9777 13.0904 4.37776
LeftFoot  -3.3817 -0.66316 9.77374
LeftToes  1.46425e-010 1.43544e-010 6.23391e-011
50
root  52.9379 38.2491 -10.3956 -123.237 -81.1693 118.779
RightUpLeg  6.22982 -2.80651 -13.9102
RightLeg  50.2204 6.21269 7.58775
RightFoot  12.8787 -2.64395 12.7007
RightToes  2.91037e-010 0 -3.6325e-017
Spine  7.38075 1.30654 -3.75572
Spine1  11.9495 3.81011 -9.06952
HEad  3.99712 9.33754 -3.89837
LeftShoulder1  8.76442 -12.9339 -46.5139
LeftArm  -7.67345 6.8014 -20.8817
LeftForeArm  30.231 -9.81095 -6.14901
LeftHand  -0.244104 0.0205437 5.32207
RightShoulder  5.04379 9.06023 34.1949
RightArm  -3.58079 -8.01864 38.2919
RightForeArm  -1.77182 43.8951 10.8949
RightHand  -0.789201 0.357486 -15.9736
LeftUpLeg  -15.7276 17.6121 -16.5804
LeftLeg  19.1438 14.298 4.23091
LeftFoot  -5.84732 -0.394252 8.9364
LeftToes  1.46425e-010 1.43544e-010 6.23391e-011
51
root  51.767 38.3763 -10.4043 -118.807 -80.8512 113.942
RightUpLeg  -0.263335 0.362871 -13.5437
RightLeg  58.3742 3.79592 6.1399
RightFoot  15.4931 -2.34596 10.2146
RightToes  2.91037e-010 0 -3.6325e-017
Spine  8.28023 1.13632 -5.07802
Spine1  11.9554 3.34934 -9.10258
HEad  3.91512 9.52281 -4.15269
LeftShoulder1  8.91214 -13.1124 -46.7972
LeftArm  -7.34943 1.93352 -21.2045
LeftForeArm  29.9574 -10.4284 -6.3381
LeftHand  -0.244104 0.0205437 5.32207
RightShoulder  5.14708 9.32968 34.1572
RightArm  -0.519716 -7.13432 39.2098
RightForeArm  3.57437 45.0204 10.9734
RightHand  -0.583981 -0.649915 -14.2065
LeftUpLeg  -12.9026 15.3554 -15.8421
LeftLeg  19.2924 16.495 3.43317
LeftFoot  -7.58676 -0.223006 8.2035
LeftToes  1.46425e-010 1.43544e-010 6.23391e-011
52
root  50.5313 38.68 -10.3606 -109.954 -81.9989 104.562
RightUpLeg  -5.63745 1.75795 -12.4567
RightLeg  62.9093 1.21283 2.05708
RightFoot  12.4582 -1.64499 8.19884
RightToes  2.91037e-010 0 -3.6325e-017
Spine  9.23532 0.395326 -4.73421
Spine1  11.8782 2.4415 -8.60623
HEad  3.6917 9.26618 -4.44173
LeftShoulder1  9.06027 -13.3448 -46.9229
LeftArm  -6.74158 -3.14508 -22.1257
LeftForeArm  29.9334 -11.0588 -6.51189
LeftHand  -0.244104 0.0205437 5.32207
RightShoulder  5.20894 9.50348 34.0975
RightArm  1.63864 -6.45752 40.0776
RightForeArm  10.9798 45.2476 10.5454
RightHand  -0.363756 -1.66644 -11.2064
LeftUpLeg  -8.86053 12.2296 -14.1628
LeftLeg  17.5413 18.2011 1.97944
LeftFoot  -8.67032 -0.123166 7.50888
LeftToes  1.46425e-010 1.43544e-010 6.23391e-011
53
root  49.3304 38.9489 -10.2897 -95.9437 -83.3819 90.1134
RightUpLeg  -10.5047 2.70005 -11.1464
RightLeg  63.9517 -0.749493 -2.22242
RightFoot  8.52619 -1.13914 6.83698
RightToes  2.91037e-010 0 -3.6325e-017
Spine  10.2514 -0.351852 -3.78819
Spine1  11.8331 1.51583 -8.03783
HEad  3.40182 8.54095 -4.44076
LeftShoulder1  9.12536 -13.5836 -46.592
LeftArm  -5.80268 -8.11487 -24.0272
LeftForeArm  29.9597 -11.8285 -6.58959
LeftHand  -0.244104 0.0205437 5.32207
RightShoulder  5.21227 9.58049 33.8891
RightArm  2.50923 -6.24825 41.0725
RightForeArm  16.9088 44.3256 9.7824
RightHand  -0.255914 -2.17726 -9.03076
LeftUpLeg  -5.1324 8.98976 -12.4536
LeftLeg  15.7611 19.3057 0.596865
LeftFoot  -9.7363 -0.0344639 6.62289
LeftToes  1.46425e-010 1.43544e-010 6.23391e-011
54
root  48.1322 39.1189 -10.2219 -78.816 -83.9977 72.6319
RightUpLeg  -14.9109 3.79867 -10.2196
RightLeg  61.9154 -1.8961 -4.39377
RightFoot  6.26035 -0.746514 5.09669
RightToes  2.91037e-010 0 -3.6325e-017
Spine  11.2843 -0.819014 -3.446
Spine1  11.7003 0.660051 -7.06388
HEad  3.05142 7.71271 -4.1965
LeftShoulder1  9.06066 -13.7102 -45.9013
LeftArm  -4.06634 -12.3927 -26.8063
LeftForeArm  29.1884 -13.4598 -6.33287
LeftHand  -0.244104 0.0205437 5.32207
RightShoulder  5.22592 9.65924 33.7553
RightArm  2.73588 -6.222 41.8212
RightForeArm  17.7057 41.9296 8.89491
RightHand  -0.234272 -2.44888 -8.91863
LeftUpLeg  -2.0244 6.33392 -11.2749
LeftLeg  14.6374 20.0362 -0.371373
LeftFoot  -10.7582 0.0354038 5.85483
LeftToes  1.46425e-010 1.43544e-010 6.23391e-011
